<svg width="64" height="64" viewBox="0 0 64 64" fill="none" xmlns="http://www.w3.org/2000/svg">
<path d="M17.3516 29.8949C19.2188 29.0956 21.3532 28.6959 23.8876 28.6959C25.0881 28.6959 26.1551 28.8293 27.2225 28.9622L27.6226 24.9656L42.9613 9.37871L34.1578 5.78174L18.284 20.8353L17.3516 29.8949Z" fill="#593FFB"/>
<path d="M53.4959 15.9066C52.0288 17.5052 53.2293 19.9032 56.297 21.2356L48.8275 29.7619C45.6263 28.2966 41.7582 28.6963 39.8905 30.6946L29.0862 25.6323L28.8196 25.8986L28.553 28.43L43.6252 35.7573C45.626 36.69 48.1605 36.4232 49.0939 35.2242L62.1654 19.6374C62.9657 18.5718 62.1654 17.2394 60.2981 16.4401L44.4256 9.91162L42.8249 11.5103L53.4959 15.9066Z" fill="#593FFB"/>
<path d="M1.21066 15.1073L16.8168 22.5676L17.0835 20.0362L17.217 19.9028L7.87982 15.5065C9.74753 13.9083 9.21383 11.7771 6.81288 10.711L15.2162 4.18305C17.6172 5.11575 20.952 4.84901 22.5526 3.5171L30.8224 6.84778L32.423 5.24913L20.0181 0.319796C18.6841 -0.21324 16.6833 -0.0798668 15.7499 0.719459L0.81027 12.1772C-0.390206 13.1095 -0.256667 14.3085 1.21043 15.1078L1.21066 15.1073Z" fill="#593FFB"/>
<path d="M21.6187 15.6404L26.6872 10.8445C25.3532 11.2441 24.0196 11.7772 23.0857 12.5765C22.1523 13.3758 21.6187 14.5748 21.6187 15.6404Z" fill="#593FFB"/>
<path d="M39.2265 15.241L33.4907 21.1025C35.358 20.7029 36.9586 20.0369 38.026 18.9709C39.2265 17.9052 39.4931 16.5733 39.2265 15.241Z" fill="#593FFB"/>
<path d="M49.4972 23.8998C50.8312 22.4345 49.7638 20.5692 47.4964 19.5035C45.0955 18.5708 42.1608 18.8376 40.8272 20.1695C39.4932 21.5019 40.2935 23.5002 42.6945 24.5658C45.0955 25.6318 48.1636 25.3656 49.4972 23.8998Z" fill="#BDB2FE"/>
<path d="M19.7501 7.78072C17.7493 6.98139 15.0817 7.24768 13.7477 8.31375C12.147 9.51228 12.5472 11.1109 14.548 12.0436C16.5488 12.9763 19.3499 12.7096 20.817 11.5106C22.151 10.3116 21.6173 8.71296 19.7501 7.78072Z" fill="#BDB2FE"/>
<path d="M35.3562 36.6892L44.1597 40.9522C46.1605 41.8849 48.695 41.6181 49.7619 40.4191L62.6996 24.6998C63.3664 23.9005 62.9663 22.8349 61.8993 22.1685L50.4285 36.0242C49.228 37.4895 46.8271 38.0225 44.5596 37.3566C44.1595 37.2232 34.1555 32.4272 34.1555 32.4272C34.9558 33.3599 35.4895 34.5589 35.4895 35.7579L35.4891 36.6902L35.3562 36.6892Z" fill="#BDB2FE"/>
<path d="M16.5505 24.0335L1.87841 16.9729L1.07809 17.5059C-0.122383 18.4386 0.0111553 19.6376 1.47825 20.437L16.1504 27.4975L16.5505 24.0335Z" fill="#9C8CFD"/>
<path d="M15.8828 30.6944L16.0163 28.9624L2.14452 22.3015L1.34421 22.8346C0.14373 23.7672 0.277268 25.0992 1.74437 25.7656L14.2831 31.7605C14.8163 31.3608 15.35 30.9612 15.8832 30.6945L15.8828 30.6944Z" fill="#9C8CFD"/>
<path d="M62.3007 27.4971L50.696 41.3528C49.4956 42.8181 47.0946 43.3511 44.6937 42.6852C44.2935 42.5518 35.2234 38.2889 35.2234 38.2889V42.0192L44.2935 46.4155C46.2943 47.3482 48.8288 47.0815 49.7622 45.8825L62.8337 30.2956C63.768 29.3629 63.3678 28.2969 62.3004 27.4975L62.3007 27.4971Z" fill="#BDB2FE"/>
<path d="M62.5677 32.8262L50.9631 46.6808C49.7626 48.146 47.3617 48.6791 44.9607 48.0131C44.5606 47.8798 35.2234 43.4835 35.2234 43.4835V47.2138L44.6937 51.7435C46.6945 52.6762 49.0954 52.4094 50.1623 51.2104L63.2338 35.6236C64.0346 34.6909 63.6344 33.6253 62.5675 32.8259L62.5677 32.8262Z" fill="#BDB2FE"/>
<path d="M12.4158 35.6241C12.4158 34.5585 12.816 33.6258 13.3497 32.8265L2.5454 27.6309L1.74509 28.1639C0.544609 29.0966 0.678147 30.4285 2.14524 31.0949L12.4158 36.0238V35.6241Z" fill="#9C8CFD"/>
<path d="M2.41021 36.4229L9.87969 40.0199C10.4134 40.0199 10.8135 39.8865 11.3468 39.8865H12.4137V37.4885L2.80991 32.8259L2.0096 33.4919C0.943104 34.5579 1.07618 35.7569 2.4102 36.4229H2.41021Z" fill="#9C8CFD"/>
<path d="M62.9691 38.2878L51.3645 52.01C50.164 53.4753 47.7631 54.0083 45.3621 53.3424C44.962 53.209 35.3582 48.5464 35.3582 48.5464V52.2767L45.0955 56.9393C47.0963 57.872 49.6308 57.6053 50.5642 56.4063L63.6357 40.8194C64.3024 40.0201 64.0358 38.9545 62.9689 38.2881L62.9691 38.2878Z" fill="#BDB2FE"/>
<path d="M9.87939 50.4112C9.87939 50.6775 10.0129 50.9443 10.146 51.0772C10.2796 51.2105 10.6797 51.3435 11.0799 51.6102V49.4785C10.6797 49.4785 10.4131 49.6119 10.146 49.7448C10.0129 49.8782 9.87939 50.1449 9.87939 50.4112V50.4112Z" fill="#593FFB"/>
<path d="M11.8818 53.3428V55.6074C12.282 55.6074 12.5486 55.474 12.8157 55.2077C13.0823 55.0743 13.2159 54.808 13.2159 54.5418C13.2159 54.2755 13.0823 54.0087 12.9492 53.8758C12.8157 53.6091 12.4155 53.4757 11.8818 53.3428H11.8818Z" fill="#593FFB"/>
<path d="M11.3486 44.8162C7.08043 44.8162 3.479 48.2798 3.479 52.6761C3.479 56.939 6.94689 60.5359 11.3486 60.5359C15.7504 60.5359 19.2183 57.0723 19.2183 52.6761C19.2183 48.2798 15.7504 44.8162 11.3486 44.8162ZM14.0162 56.1401C13.4825 56.5398 12.8157 56.8061 12.0154 56.9394V57.8721L11.0816 57.8717V56.939C9.88109 56.8056 8.94723 56.4059 8.01383 55.6066L8.94769 54.541C9.61447 55.207 10.4148 55.4737 11.082 55.6066V53.2086C10.1482 52.9424 9.48139 52.6756 8.94769 52.2759C8.54753 51.8763 8.28091 51.3432 8.28091 50.6773C8.28091 50.0113 8.54753 49.3449 9.08123 48.9453C9.61492 48.5456 10.2817 48.2793 11.082 48.1459V47.48H11.8823V48.1459C12.8162 48.2793 13.6165 48.5456 14.5499 49.0786L13.7496 50.2776C13.2159 49.878 12.5491 49.6117 12.0154 49.6117V52.0097C12.9493 52.2759 13.6161 52.5427 14.1498 52.9424C14.5499 53.342 14.8165 53.8751 14.8165 54.6744C14.683 55.074 14.5499 55.7404 14.0162 56.1401V56.1401Z" fill="#593FFB"/>
<path d="M23.8882 30.0286C18.2859 30.0286 13.7507 32.5599 13.7507 35.6238V40.0201C13.7507 40.5532 13.8842 41.0858 14.1508 41.4854C13.217 41.2191 12.2836 41.0858 11.3497 41.0858C5.0807 41.0858 0.0117188 46.148 0.0117188 52.4097C0.0121653 58.9377 5.0807 63.9999 11.3502 63.9999C13.351 63.9999 15.3518 63.4669 16.9524 62.5347C18.6866 63.4674 21.0875 63.9999 23.7551 63.9999C29.3573 63.9999 33.8926 61.4686 33.8926 58.4046V55.4736C32.292 57.8716 28.4239 59.4703 23.7551 59.4703C22.6881 59.4703 21.6208 59.3369 20.5538 59.204C20.8204 58.8043 21.0875 58.2713 21.3541 57.8716C22.1544 58.005 22.9548 58.005 23.7551 58.005C29.3573 58.005 33.8926 55.4736 33.8926 52.4097L33.8921 49.3458C32.2915 51.7437 28.4235 53.3424 23.7546 53.3424H22.5542V52.6764V51.8771H23.7546C29.3569 51.8771 33.8921 49.3458 33.8921 46.2818V43.3508C32.2915 45.7488 28.4235 47.3475 23.7546 47.3475C22.8208 47.3475 22.0205 47.2141 21.2201 47.2141C20.82 46.5481 20.5534 46.0151 20.0197 45.4821C21.2201 45.7483 22.4206 45.8817 23.7546 45.8817C29.3569 45.8817 33.8921 43.3504 33.8921 40.2864V35.8901C34.0257 32.5599 29.4904 30.0286 23.8882 30.0286H23.8882ZM20.6869 52.6758C20.6869 57.738 16.5518 61.868 11.4832 61.868C6.41472 61.868 2.27959 57.738 2.27959 52.6758C2.27959 47.6135 6.41472 43.4835 11.4832 43.4835C16.5522 43.4835 20.6869 47.4801 20.6869 52.6758ZM23.8882 40.0201C19.3529 40.0201 15.6184 38.1552 15.6184 35.7572C15.6184 33.3592 19.3533 31.4943 23.8882 31.4943C28.4235 31.4943 32.158 33.3592 32.158 35.7572C32.1584 38.0218 28.4235 40.0201 23.8882 40.0201Z" fill="#593FFB"/>
<path d="M23.8869 32.293C20.0189 32.293 16.9507 33.7582 16.9507 35.7566C16.9507 37.6215 20.0184 39.2202 23.8869 39.2202C27.755 39.2202 30.8232 37.7549 30.8232 35.7566C30.8232 33.7587 27.7554 32.293 23.8869 32.293ZM26.1548 37.4886C25.7546 37.7549 25.0879 37.8883 24.2875 37.8883V38.2879H23.6208V37.8883C22.5538 37.8883 21.7535 37.622 20.8196 37.2223L21.62 36.6893C22.2867 36.9556 22.8204 37.2223 23.4872 37.2223V36.0233C22.6869 35.8899 22.0201 35.757 21.62 35.6236C21.2198 35.4903 21.0863 35.224 21.0863 34.8243C21.0863 34.4247 21.3529 34.1584 21.753 33.8916C22.1532 33.6253 22.82 33.492 23.4872 33.492V33.2257H24.154V33.492C24.9543 33.492 25.7546 33.6253 26.4214 33.8916L25.7546 34.4247C25.2209 34.2913 24.6877 34.1584 24.154 34.025V35.224C24.9543 35.3574 25.6211 35.4903 26.0213 35.6236C26.4214 35.757 26.688 36.0233 26.688 36.423C26.8216 36.956 26.688 37.2223 26.1548 37.4886H26.1548Z" fill="#593FFB"/>
<path d="M22.5513 34.5582C22.5513 34.6916 22.6848 34.8245 22.8179 34.8245C22.9514 34.9578 23.218 34.9578 23.6182 35.0908V34.0251C23.218 34.0251 23.0845 34.1585 22.8179 34.1585C22.6844 34.2914 22.5513 34.4248 22.5513 34.5582Z" fill="#593FFB"/>
<path d="M25.2197 36.2895C25.0862 36.1561 24.686 36.1561 24.2859 36.0232V37.0888C24.686 37.0888 24.9527 36.9554 25.0862 36.9554C25.3528 36.8221 25.3528 36.6891 25.3528 36.5558C25.4864 36.4228 25.4864 36.2895 25.2197 36.2895H25.2197Z" fill="#593FFB"/>
</svg>
