<svg width="141" height="158" viewBox="0 0 141 158" fill="none" xmlns="http://www.w3.org/2000/svg">
<path opacity="0.2" d="M67.9165 87.9346C72.0207 85.9346 75.8379 83.3602 79.2316 80.3036C82.5648 77.219 85.4792 73.7426 87.8909 69.9744C90.3084 66.3251 92.2865 62.45 93.7823 58.4331C95.2963 54.4232 96.0883 50.2556 96.1221 46.1209C96.1299 44.037 95.8233 41.9923 95.2117 40.0503C94.6044 38.0221 93.5256 36.1914 92.0519 34.6884C90.3857 33.0303 88.1341 32.0131 85.6559 31.799C83.1082 31.6441 80.4966 32.1952 78.1238 33.3884C77.0063 33.9223 75.9273 34.5394 74.8977 35.2338C73.9324 35.9254 73.0005 36.662 72.1061 37.4404C71.244 38.1873 70.4281 38.9829 69.6635 39.8223L68.4417 41.0888L67.3863 42.3545C64.7552 45.6173 62.4365 49.0889 60.4629 52.7205C58.4804 56.2579 57.0032 60.0004 56.0755 63.8365C55.199 67.4753 54.8656 71.1665 55.0857 74.7947L55.1467 76.1065L55.3336 77.3888C55.4494 78.2308 55.5685 79.1082 55.7041 79.9179C56.0158 81.5511 56.4174 83.1593 56.907 84.7361C57.1957 85.648 57.5359 86.5437 57.8761 87.4393C56.9468 87.6978 56.0853 87.8723 55.087 88.1215C51.388 88.9008 47.6449 89.2054 43.9584 89.0271C40.4358 88.8125 37.0204 88.0763 33.8298 86.8438C27.8292 84.3019 22.6403 80.4212 18.653 75.4935C14.9205 70.8731 11.9288 65.7093 9.76428 60.1511C7.76339 55.0692 6.21 49.7993 5.1193 44.3927C4.10906 39.6681 3.43552 34.8528 3.10317 29.9789C2.57697 22.8395 3.28189 15.5511 5.19001 8.40283C6.6601 3.28244 8.12527 0.47755 7.80675 0.469427C7.29413 1.05188 6.87885 1.70395 6.57822 2.39844C5.57863 4.29986 4.72556 6.25857 4.02653 8.25725C1.6323 15.4893 0.558332 22.9504 0.854852 30.292C1.00234 35.3068 1.51286 40.272 2.38272 45.1519C3.32886 50.7486 4.75895 56.2164 6.65869 61.5006C8.76448 67.387 11.7589 72.8741 15.5526 77.7981C19.7295 83.2397 25.2528 87.5546 31.6935 90.4076C35.2331 91.8627 39.0395 92.7579 42.9778 93.0614C47.0979 93.3335 51.293 93.0504 55.444 92.2202C56.8762 91.9531 58.2993 91.6091 59.7065 91.1899C61.3282 94.4766 63.2698 97.5865 65.5077 100.482C71.5349 108.13 78.7934 114.766 87.0485 120.176C92.9978 124.139 99.3175 127.601 105.946 130.528C113.259 133.827 120.998 136.321 129.03 137.965L131.565 138.377L129.148 139.238C126.569 140.228 124.12 141.317 121.797 142.376C117.709 144.303 113.751 146.516 109.957 148.994C103.465 153.238 100.052 156.582 100.396 157.025C100.739 157.467 104.794 155.093 111.356 151.685C114.673 150.003 118.615 148.045 123.094 146.171C125.344 145.218 127.708 144.281 130.168 143.391C131.414 142.954 132.674 142.507 133.951 142.086C134.597 141.871 135.18 141.717 136.114 141.343C137.345 140.882 138.425 140.059 139.188 139C139.584 138.425 139.86 137.788 139.999 137.131C140.099 136.614 140.13 136.094 140.09 135.583C140.01 134.833 139.846 134.1 139.6 133.399C139.246 132.269 138.863 131.158 138.512 130.063C137.772 127.879 137.034 125.789 136.32 123.796C134.834 119.847 133.366 116.413 132.018 113.461C129.371 107.749 127.235 104.376 126.604 104.675C125.974 104.974 126.911 108.883 128.711 115.004L131.978 125.688C132.598 127.696 133.239 129.796 133.901 131.989C134.229 133.081 134.575 134.198 134.92 135.315C134.931 135.345 134.949 135.371 134.973 135.392C134.048 135.046 132.72 134.599 130.792 134.036C123.315 131.772 116.049 129.022 109.041 125.801C102.749 122.825 96.7319 119.395 91.0371 115.536C83.2387 110.332 76.367 104.003 70.6311 96.7397C68.7705 94.3104 67.1246 91.7259 65.7085 89.0097C66.4649 88.6812 67.2213 88.3528 67.9602 87.9987L67.9165 87.9346ZM62.8335 82.2314C62.3782 80.8424 62.0019 79.424 61.706 77.9821C61.5715 77.2656 61.4798 76.52 61.365 75.7712L61.2087 74.656L61.1554 73.5082C60.929 70.3956 61.1962 67.2222 61.9478 64.0945C62.7254 60.7807 63.9795 57.5447 65.6726 54.4836C67.4086 51.2067 69.4626 48.0729 71.8044 45.1279L72.7011 44.027L73.6503 43.003C74.2724 42.3237 74.9296 41.6743 75.6188 41.0576C76.2855 40.4144 76.9632 39.9706 77.7306 39.3526C78.435 38.8691 79.1747 38.4395 79.9419 38.0685C81.2092 37.3156 82.6599 36.9648 84.0682 37.0709C85.4765 37.177 86.7634 37.734 87.7285 38.6551C89.7418 40.9759 90.7824 43.9803 90.672 47.1536C90.6762 50.6849 90.0387 54.2497 88.788 57.6884C87.4787 61.3115 85.7353 64.8116 83.5952 68.1136C81.5206 71.4649 78.9934 74.5634 76.0876 77.3182C73.1352 80.0106 69.8078 82.2822 66.2251 84.0514C65.4523 84.4475 64.6619 84.8179 63.8771 85.1658C63.4843 84.1932 63.1146 83.2238 62.7525 82.1739" fill="#5B1727"/>
</svg>
