<svg width="64" height="64" viewBox="0 0 64 64" fill="none" xmlns="http://www.w3.org/2000/svg">
<path d="M4.1874 36.8456C3.9633 36.3653 3.93919 35.8148 4.12044 35.3166C4.30168 34.8179 4.67356 34.4121 5.15437 34.1876C21.0161 26.8135 35.3841 16.5795 47.5384 4.00001H39.9995C39.2848 4.00001 38.6246 3.61877 38.2674 3.00001C37.9103 2.38125 37.9103 1.61875 38.2674 1C38.6246 0.381259 39.2848 0 39.9995 0H51.9996C52.5237 0.0205361 53.0205 0.237944 53.3911 0.608482C53.7616 0.979021 53.979 1.47589 53.9996 2.00003V14.0001C53.9996 14.7148 53.6183 15.3751 52.9996 15.7322C52.3808 16.0893 51.6183 16.0893 50.9996 15.7322C50.3808 15.3751 49.9996 14.7148 49.9996 14.0001V7.24519C37.6076 19.9904 22.9801 30.3516 6.84525 37.8122C6.3649 38.0363 5.81445 38.0604 5.31622 37.8791C4.81756 37.6979 4.41175 37.326 4.1872 36.8452L4.1874 36.8456ZM62 60H60V21.9998C60 21.4695 59.7893 20.9605 59.4143 20.5856C59.0393 20.2106 58.5304 19.9998 58 19.9998H46C45.4697 19.9998 44.9607 20.2106 44.5857 20.5856C44.2107 20.9605 44 21.4695 44 21.9998V60H40V33.9999C40 33.4695 39.7893 32.9606 39.4143 32.5856C39.0393 32.2106 38.5304 31.9999 38 31.9999H26C25.4696 31.9999 24.9607 32.2106 24.5857 32.5856C24.2107 32.9606 24 33.4695 24 33.9999V60H20V43.9999C20 43.4696 19.7893 42.9606 19.4143 42.5856C19.0393 42.2106 18.5303 41.9999 18 41.9999H5.99998C5.46962 41.9999 4.96068 42.2106 4.58569 42.5856C4.21069 42.9606 3.99997 43.4696 3.99997 43.9999V60H1.99997C1.28524 60 0.625001 60.3812 0.267857 61C-0.0892858 61.6187 -0.0892858 62.3813 0.267857 63C0.625001 63.6187 1.28526 64 1.99997 64H62C62.7148 64 63.375 63.6188 63.7321 63C64.0893 62.3812 64.0893 61.6187 63.7321 61C63.375 60.3812 62.7147 60 62 60ZM11.2937 15.8707C12.3191 16.1452 13.1745 16.8533 13.6361 17.8091C13.6732 17.9506 13.7709 18.3287 13.2298 18.9702C12.2749 20.11 9.95933 18.4095 9.91819 18.3783L9.91863 18.3787C9.35301 17.9452 8.59989 17.8452 7.94092 18.1162C7.28199 18.3872 6.81681 18.9881 6.71989 19.6939C6.62301 20.3997 6.90872 21.1042 7.47033 21.5426C8.24042 22.1185 9.09308 22.5748 9.99936 22.8962V23.9998C9.99936 24.7145 10.3806 25.3748 10.9994 25.7319C11.6181 26.0891 12.3806 26.0891 12.9994 25.7319C13.6181 25.3748 13.9994 24.7145 13.9994 23.9998V23.1016C14.8949 22.8132 15.6895 22.2743 16.2882 21.5484C17.4596 20.2672 17.9158 18.4873 17.506 16.8006C16.7431 14.5662 14.9596 12.8306 12.7051 12.1287C11.6796 11.8542 10.8243 11.1461 10.3627 10.1903C10.3256 10.0488 10.2279 9.67068 10.7689 9.02918C11.7319 7.88277 14.0577 9.60328 14.0734 9.61534V9.61489C14.6377 10.0537 15.393 10.1578 16.0546 9.88855C16.7167 9.61935 17.1846 9.01712 17.2823 8.30957C17.3801 7.60154 17.0926 6.89528 16.5283 6.45688C15.76 5.87339 14.9073 5.41 13.9993 5.08316V3.99967C13.9993 3.28494 13.618 2.6247 12.9993 2.26755C12.3805 1.91041 11.618 1.91041 10.9992 2.26755C10.3805 2.6247 9.99925 3.28496 9.99925 3.99967V4.86798C9.10148 5.16754 8.30725 5.71665 7.71045 6.45108C6.53902 7.73234 6.08279 9.51223 6.49262 11.1989C7.25557 13.4333 9.03902 15.1689 11.2935 15.8708L11.2937 15.8707Z" fill="#FB3F6C"/>
<rect x="46" y="22" width="12" height="38" fill="#EDA2B4"/>
<rect x="26" y="34" width="12" height="26" fill="#EDA2B4"/>
<rect x="6" y="44" width="12" height="16" fill="#EDA2B4"/>
</svg>
