<svg width="64" height="60" viewBox="0 0 64 60" fill="none" xmlns="http://www.w3.org/2000/svg">
<path fill-rule="evenodd" clip-rule="evenodd" d="M44.7751 38.2192V38.2196C43.6202 40.549 41.8277 42.5193 39.5906 43.9165C37.2914 45.353 34.627 46.1122 31.8855 46.1122C29.1444 46.1122 26.4799 45.353 24.1808 43.9165C21.9437 42.5193 20.1512 40.549 18.9963 38.2196V38.2192C18.0525 36.3154 17.574 34.271 17.574 32.1422C17.574 31.4652 18.1361 30.9172 18.8289 30.9172H44.9416C45.6349 30.9172 46.1965 31.4653 46.1965 32.1422C46.1965 34.271 45.7183 36.3155 44.7746 38.2192H44.7751ZM24.0111 21.9482C25.8254 21.9482 27.3013 23.3887 27.3013 25.16C27.3013 26.9308 25.8254 28.3713 24.0111 28.3713C22.1972 28.3713 20.7208 26.9308 20.7208 25.16C20.7208 23.3887 22.1972 21.9482 24.0111 21.9482ZM39.1361 21.9482C40.9504 21.9482 42.4263 23.3887 42.4263 25.16C42.4263 26.9308 40.9504 28.3713 39.1361 28.3713C37.3222 28.3713 35.8463 26.9308 35.8463 25.16C35.8463 23.3887 37.3222 21.9482 39.1361 21.9482ZM62.1447 28.6118C63.8274 27.0105 64.4216 24.6605 63.6956 22.4793C62.9692 20.2976 61.0737 18.7378 58.7481 18.4078L45.9455 16.5919C44.7665 16.4245 43.7481 15.7021 43.2209 14.6594L37.4952 3.33465C36.455 1.27792 34.3496 0 31.9995 0C31.9995 0 32 0 31.9995 0C29.6499 0 27.5441 1.27792 26.5038 3.33465L20.7786 14.6594C20.2514 15.7022 19.2327 16.4245 18.054 16.5919L5.25137 18.4078C2.92628 18.7377 1.03068 20.2976 0.304375 22.4793C-0.421542 24.6605 0.17268 27.0105 1.85527 28.6118L11.1194 37.4264C11.9721 38.238 12.3614 39.4071 12.1601 40.553L9.97292 52.9999C9.57559 55.2607 10.51 57.5027 12.4109 58.851C13.4855 59.6127 14.7422 60 16.0075 60C16.9816 60 17.9602 59.7705 18.8652 59.3064L30.3169 53.4296C31.371 52.8885 32.6299 52.8885 33.6844 53.4296L45.1362 59.3064C47.2161 60.3737 49.6894 60.1993 51.5899 58.851C53.4914 57.5027 54.4253 55.2607 54.028 52.9999L51.8413 40.553C51.6399 39.4071 52.0288 38.2381 52.8819 37.4265L62.1447 28.6118ZM20.9413 36.4619H42.831C43.2435 35.4689 43.5083 34.434 43.623 33.3672H20.1492C20.2635 34.434 20.5283 35.4689 20.9412 36.4619H20.9413ZM25.5343 41.8536C27.4285 43.0371 29.625 43.6625 31.8857 43.6625C34.1469 43.6625 36.3435 43.0371 38.2377 41.8536C39.489 41.0717 40.5726 40.0726 41.4369 38.9114H22.3346C23.1989 40.0726 24.282 41.0718 25.5338 41.8536" fill="#80CC28"/>
</svg>
